/* XPM */
static char *Screen_Shot_2023_04_04_at_11_15_07_PM1680656947[] = {
/* columns rows colors chars-per-pixel */
"50 50 242 2 ",
"   c black",
".  c #031501",
"X  c #041C00",
"o  c #062600",
"O  c #152C06",
"+  c #043400",
"@  c #183807",
"#  c #1C340B",
"$  c #1D3D0B",
"%  c #273702",
"&  c #203C0C",
"*  c #202A11",
"=  c #243916",
"-  c #293A15",
";  c #3B3923",
":  c #1E4507",
">  c #1F4A01",
",  c #1A4011",
"<  c #284604",
"1  c #224C02",
"2  c #23440B",
"3  c #264E0C",
"4  c #2A4D0E",
"5  c #324E05",
"6  c #2E5704",
"7  c #2C530D",
"8  c #345807",
"9  c #244311",
"0  c #2C4514",
"q  c #244A12",
"w  c #2B4C14",
"e  c #254619",
"r  c #2C4B1A",
"t  c #364D15",
"y  c #34441D",
"u  c #354C1C",
"i  c #2C5314",
"p  c #2D5A14",
"a  c #2E531A",
"s  c #325414",
"d  c #345A14",
"f  c #395815",
"g  c #34551A",
"h  c #3A531C",
"j  c #355A1A",
"k  c #3A5C1C",
"l  c #37640A",
"z  c #366116",
"x  c #3A6316",
"c  c #36611C",
"v  c #3C631D",
"b  c #3E6A1C",
"n  c #2D4821",
"m  c #354423",
"M  c #324B25",
"N  c #3A4F24",
"B  c #365522",
"V  c #3B5524",
"C  c #365B22",
"Z  c #3B5C23",
"A  c #3B572B",
"S  c #3D6322",
"D  c #3E6922",
"F  c #3C642A",
"G  c #405F1E",
"H  c #41651D",
"J  c #466D18",
"K  c #436C1D",
"L  c #43721C",
"P  c #49781D",
"I  c #415C24",
"U  c #44582C",
"Y  c #4A5432",
"T  c #455A31",
"R  c #426423",
"E  c #486523",
"W  c #446B23",
"Q  c #496E25",
"!  c #43642B",
"~  c #4A652D",
"^  c #456C2A",
"/  c #4A6B2B",
"(  c #457323",
")  c #4A7324",
"_  c #457826",
"`  c #4D7B25",
"'  c #46732A",
"]  c #4B732B",
"[  c #4D7B2B",
"{  c #517425",
"}  c #517B26",
"|  c #51752D",
" . c #537C2C",
".. c #5A7D2C",
"X. c #436531",
"o. c #4B6633",
"O. c #4C6D32",
"+. c #4A6D37",
"@. c #526C35",
"#. c #566839",
"$. c #546C3C",
"%. c #4D7433",
"&. c #4E7A32",
"*. c #4C7238",
"=. c #527433",
"-. c #547C33",
";. c #597D34",
":. c #54743B",
">. c #5A743B",
",. c #547C3A",
"<. c #5A7C3B",
"1. c #5A6B44",
"2. c #5A7342",
"3. c #537B40",
"4. c #5B7D42",
"5. c #617C42",
"6. c #627748",
"7. c #6F795B",
"8. c #4E841A",
"9. c #54831F",
"0. c #4E812A",
"q. c #538225",
"w. c #598924",
"e. c #54832C",
"r. c #5A842D",
"t. c #568A2D",
"y. c #5B8B2D",
"u. c #5B9021",
"i. c #5D922E",
"p. c #558333",
"a. c #5B8434",
"s. c #5C8B33",
"d. c #56833A",
"f. c #5B843B",
"g. c #5D8B3B",
"h. c #5E9033",
"j. c #5E923A",
"k. c #628B28",
"l. c #628E2E",
"z. c #63932E",
"x. c #689628",
"c. c #628D33",
"v. c #62843C",
"b. c #658939",
"n. c #638C3C",
"m. c #708A38",
"M. c #639334",
"N. c #699536",
"B. c #659A34",
"V. c #6A9C35",
"C. c #64933B",
"Z. c #6A943D",
"A. c #64993C",
"S. c #6B9B3C",
"D. c #77973E",
"F. c #729D3B",
"G. c #6CA32C",
"H. c #6DA134",
"J. c #6AA932",
"K. c #6DA13B",
"L. c #71A536",
"P. c #72A43B",
"I. c #76A838",
"U. c #76AC3B",
"Y. c #79AC3C",
"T. c #7AB23B",
"R. c #5C8542",
"E. c #5C8745",
"W. c #5F9142",
"Q. c #628542",
"!. c #638B44",
"~. c #65854B",
"^. c #658C4B",
"/. c #6B8948",
"(. c #649243",
"). c #6A9544",
"_. c #679845",
"`. c #6C9B43",
"'. c #65944A",
"]. c #69944B",
"[. c #66994A",
"{. c #6D9B4B",
"}. c #769845",
"|. c #729C45",
" X c #729C4C",
".X c #668A50",
"XX c #738D5A",
"oX c #6C9852",
"OX c #739D53",
"+X c #739958",
"@X c #6CA142",
"#X c #6EA14B",
"$X c #73A343",
"%X c #79A646",
"&X c #7BAB43",
"*X c #74A44C",
"=X c #79A449",
"-X c #73AA4F",
";X c #7AAB4D",
":X c #79B043",
">X c #7DB14C",
",X c #75A354",
"<X c #7BA555",
"1X c #76AD54",
"2X c #7BAC52",
"3X c #74A55A",
"4X c #7BAC5A",
"5X c #7DB354",
"6X c #7BB15C",
"7X c #7C9E60",
"8X c #7BA763",
"9X c #7CAC60",
"0X c #7CB161",
"qX c #84A93F",
"wX c #85B63D",
"eX c #80A842",
"rX c #86B747",
"tX c #87B94B",
"yX c #84AE57",
"uX c #83B353",
"iX c #83B45C",
"pX c #87B858",
"aX c #8DB95C",
"sX c #95BD5C",
"dX c #829662",
"fX c #82AE62",
"gX c #8DAD69",
"hX c #84B362",
"jX c #89B364",
"kX c #8ABA67",
"lX c #94B968",
"zX c #99AF7A",
"xX c #95BA72",
"cX c #8AC046",
"vX c #98C75B",
"bX c #A6D54F",
"nX c #8BC369",
"mX c #94C269",
"MX c #99C875",
"NX c #A1CC6B",
"BX c #A6D378",
"VX c #A7CB84",
/* pixels */
") B.( c & a p.R OX_.d A.`.] ' a V.V.v i t.K.W ) } W g. .^ ).a.x ] =.` c ` s.W  .Q ] Z E @.M.s.d.&.{.",
"` } ^ i D y.v R hX-.> U.:X_ W =.%XZ.g.W e.s.k K Q R ;. .f.p./ [  .n.` j ( ] v D ] e.Q Z R e.j.j.p.5X",
"v ! S l.S Q $ A.{.: t.H.T.L.`.!.<X@.,X^.8 K H [ n.<Xf.s.C.-.@.-.] a.e.K ] f.R r.r.) H H ^ ) p.A.[ Q ",
"% D b F.W 3 K @Xp.K M.B.w.y.p.R b.8 4X+X> %.u H n.].n.y.i.p.o.Z ^ g.t.) c [ a.) ) f Q ..%. .v ' I f ",
"E R j v 0.M. .a. .M.K.j.[ _ ^ j.y.} 4X].% 5.n V | H ` ( ` ` p.Q g ] } j D p.h.W r.Z.] ) -. .g / O.~ ",
"M.R * W k f.-X) S t.pX&.b e.R.5XuXG <X(.J }.u <.| 7 N.r.K.) ( a.g ) ) k [ g.U.N.H ;.n.p.p. .f j v.<.",
"d u $ / :.' ;X,.2 J 5X^.5 (.kXiXMXoXj.[ ..c.N.=XQ { pXV.z.} =.p.j S i a C ( S.B.} r.$X`.d.s.) u -.;.",
"D ` W S C b ,..Xd W F <Xc.B 2XhX[.hXg.D ' j k.F.} M.-. .`.] p.]  .W a w b ] c.) S.S.S.$Xg._ W / H Q ",
"' r.V.] i ( w B *.a.x _.2XJ `.~.*.2Xs.i D D ` } y.a.~ ).`.} -.a.s.g.' [ z.S.;.Q a.] Z.e.g.)  .;.d W ",
"-.) j._.[ ` g./ Z a } s.,XM.).T C t.e.e j i i -.{ jXZ.P a.K / oX[ t.p.b g.2XI Z.f  .a.-.`. .a.p.` ( ",
"r.q.t.K.].C -.,.e O  .` c.S. XX S M.a.A A j $ ^ /. Xs.`  .g Q.,X' p.[ ` |.2.G m.w.L.R.] *Xa.) ] j.e.",
"-.d.c [ %.%.g ! e # ^ B :.;XB.* } L.S.^ j ' R Q Z.r c.j.) -.a. .D p.D e.) ;.| Z.w.h.[ ] *X .Z !.-.g.",
"Z OX| p.a.&./  X@Xf.^ r A a.H.Q 4 z.I.z.t.e.s.{ W h Y.>Xl.W u / ` `.nXuXx.c.| S.s.: ' g.).w =.}.D g.",
"Z 4.k !.W.^ ].P L.*Xa.Q j i %XS.  } Y.$X@.g r.a.0 n.N.v.S.M.>.T z [ >XP.k.t O p.U.S x (.).] a.a.' g.",
"D j - ~ :.-.uXd R =.-./ j : g.:Xg 4 S.jX6.h yXv.@.:.w f.=.) k.v.OX .u.` Z T M ( t.*X[.[.Z 4 a. . .a.",
"].^ A ;.c i.T.%.:.-.! C ] 3 `.2Xs k.;X4Xu /.xX5.R B ! v.~ X.} b.^.] b 0.!.3XE.A.s.W.4.O.Z a.A.g.Z / ",
">.~ Q Q D i.G.(.jXc.s r.W d kXE.9.rXrXOX^ c./.6.H w.a.(.).!./ S v -. . .r ! a s.`.=.,.%.'.6Xy.f.o.Q ",
"N...h $ r W ` _ uXV.k M.) =./.b I.q.s.(.!.c.| 5.G L.L.V f. .<.(.] /.o.2 U E t ;.) A ,.d.3XW.r.g.f.R ",
"B.( Z Q w v W $XaXK a.P.v / Z.).#X%.&.d.' (.[ ( { z.r.| R L.$XC.Z.C M A #.I V c.K * < ,.R.0 j s.K.( ",
"D OXuX` ;.;.Q =XZ.H C.Z.y H s.' '.*.' _ ( ' a D ) ) H r.< a.>Xc.7 @ h Q.>.g h a.j./ h ] I y A f.t.p.",
"OX XK.z C.Z.~  .r.-.c.g.$.`.` i _.[ 3 d &.&.w i -.W R (.<.-.A.g O ^ =.C.*X' K [ p.c.j ! -.u 2.,Xl c ",
"4.;X$XL {.v.E g B V ..M.iX2Xv D t.K.`.S e.1XjXC.g.! ) ] 9XC.t.e.) @X-.} b g s.C.' e._ x n.| Q. X9.S ",
"k.=X|.v./ o.w w N o.I c.&X!.r.} b t.;X'.c c.uXC.a.' e.w.OX].6 y.s.v 0 ] ( r.1X3X).[ g._ -.%.,.V.V.F ",
"Y.rX} q./.1.V / I t u a.l.b i.wXt.) -X4Xk =.C.A.^  .S.M.r.r / A.0.q o.c v  .j.[.5X*XE.' d O.f.&XS.F ",
"$XI.0 P N.~ I G ) r.[ D } M.e.k.S.z {.,Xa.v.! e.g.C.y.Q v.p. .b g.:.,X(.g.v -.[.j.M.%.S D s.M.<Xv c ",
">X| . y.M.c.-.k [ e.a.c.M.l.s./ %.v + D -.>.~ L  X2X] E Q  X;.7  .].[.hX).v 8XR.8 0.f.! ' 6XOXR.3 F ",
"V.s k z.` W {.].j d  .-.-.v.H Q.,.S g ' g.X.Z Z  .S.Z.=.a.^.9 f S W ' -.b g.R.3 9 a.-.i {.0XC w j ! ",
"y.O r.h.c =.].E.j K ` ) l.~ =.! ,.*.C -.(.a.] ] ] 8 <.>.;.R S i R c ' v R -.k 2 p W.'.j `.M.L v W / ",
"C.$ q.N.P ] fX].6 0.h.U.I.- .X- *.:.M k ] ,X&.( Q P ) ^ v @ ).n.p.B.[ b / b W.R.e.#X0X*.-.e.g.;.f ( ",
"e.j e.L.E w fXfX@ p.S.M.}.m 6.U $ :.#.f / ].&.q.v K B.e.W H | ).j j.b Z ] w -.&.j.nX4XA X.oXQ.$.+.Z.",
"7 B Z.H.[ i OXiXx s.) R./.B a.l.n.f.1.I  .:.4.g.4 w ] / b.v.O R f g.' j {.s.) x #X3X'.4.R.3X@.7.1.<X",
"| n.*X).).Q...K.n.,.+ ].Q.< ..b.4X2X=.4 -.<.~.,.) -.g O # iX<.: W s.[ 6 oXOX` D @XA.9 w OX4Xh ; 1.I ",
"Z.<. X/ .XfXJ ;XkX'.J c.W | ) #.XX,X|.] p.R.4.' ` g.%.C o ).pXL e.K ) q.).3Xz k w.A.g ^ {.p.-.I :.,.",
"] ' p.P ].8XJ g.O.R N.wXN.z n.N $.Q.XX=.Q k u ! j W Q ) Z ) uX . .M.e.W ^.s.b ' K.r.# %.*.9 j Z ! O.",
"( n.F.) *X,Xd ^ q w g ..I.c. .R ! 4.>.$ ) n.=.=.w ` y.W ) } P.s.G.rX$Xv  .} x R.pXA.o ~ =.=.g R ^ w.",
"a.Z.pX<.Q.).j @.- M y B }.tXc.V o.$.6.>.1 n.).P K S.y.k W z.M.` i.r.{.O.v S w & B.U.i r n.).g %.c e.",
"[ [.*X{.`.e./ v.. @.:.d.n.S.M.V 7 $.1.y s k.-.).`.S.{.y.} :.Q.W [ [ K Q b j v g M.T.0.D y.h.' g.j ` ",
"d.5XuXp.W.p.q.N./ ,X%.D b _ r.W w U U o E k./.lXF.y.$.%.l.=.+.-.R -.' K k V / g *XK.w._ y.i.0.5X_.W ",
"kXhXkX3Xg.[ ' [ =XuX0.d.&.n.` ) r Y Y Z R s.F.c.z.r.. # )  .^ 3X! e.-.p.Q ~.~.S 3XOX> D t.^ D >X|.0 ",
"*X0X[.1X`.z ^ z i.S.j._.OXS.N.v.C.4X{.;.Z y.H.P q.` 0 - K h.` {.{.e.( [ O.].3.^ {.<X6 = W D i B.N.k ",
"$XE.*._.`.3 j D ^ c W.[.D ' Z.l.y.).O.^ g d Z. Xr.} R o.=.` i k -.W C = ! d.'.0Xd.<XR M N Q R e._ ( ",
"`.$.a 0.t.9 C w w > ,.oXW Z.r.{ gX Xq.f 9 H Z.2XN.s./ Q.=.Z [ Q & ^ . A A T W.d.g.uX) I ! C w ( _ ' ",
"2X- j M.M.A B D M.) X.W.L N.k.m.uX(.b g H M.h.q.s.( ] Q m y  . .& k Z E.!.Z.S.( #XB.i.) A n . g.p.@ ",
"&Xt k H.P.] d ' H.R T R.R./ { I.8.> i L.z.a.[.S.` g.P.V * V B Z / -.,.1X'...R ) s._ ` ! ,.N o g.&.g.",
"P.r.# e.U.B.w.s.s.| :.f.^.X.P H.-.] v Y.:Xs._._.`.c.%X<.#.r j e *.g._.,X/ H W ) a.;.S.4XiXC.q c [ d.",
"c.&X+ k I.;X:.E <.<.-.d.-.D b g.lXZ.7 H :Xh.d ] Z.M.g.~ ~.=.D v q ^ !.t.K - b k n.=.Q s.a.A.` z t.0.",
"E rXr.& s.jXXXy >.D...2 B S v p.A./ F , *XC.L H.L.q.~.:.+X+X< ] W B 3.W ) r d '.K.W $ w.w.+ [ s.h.' ",
"L.bXeXN.r.xX>./ k { rXqXf.h.z.s.s.C.d.S g.&XI.V.:X` ^.,.~.gX@./  X,X].^ |.pXn.,.[ ` a.wX;X7XP Y.H.P ",
"G.wXvXrX..mXyXv.( }.}.aX|.J.cX}.|.A.(.' OXvX>Xp.4XM.lX1.; zXVX}.aXMXBXC.` vXpX- } K ).M.mXmXu.Y.V.tX",
"!.aXvXS.P.sXsX}.z.F./.OXC.:XtXNXBXN.{.*XMXvX[.j.5XS.kXxXdX7XgX X%XvXmX/ x F.sX#.a.L.a.<XfXS.tXc.8 )."
};
