/* XPM */
static char *pierre_ou_brique_avantages_de_la_brique1680656908[] = {
/* columns rows colors chars-per-pixel */
"50 50 106 2 ",
"   c #7D351C",
".  c #793522",
"X  c #7F3C22",
"o  c #85301C",
"O  c #8D3527",
"+  c #863B24",
"@  c #8A3C25",
"#  c #863C2A",
"$  c #8A3E2B",
"%  c #923725",
"&  c #903C24",
"*  c #8C4026",
"=  c #85402D",
"-  c #8D422C",
";  c #92442D",
":  c #99462E",
">  c #94492E",
",  c #9A492E",
"<  c #8D4532",
"1  c #8E4935",
"2  c #8D4939",
"3  c #924632",
"4  c #9C4436",
"5  c #954934",
"6  c #9A4C35",
"7  c #944C3A",
"8  c #9A4E3A",
"9  c #9D5236",
"0  c #95523D",
"q  c #9D523C",
"w  c #A24F36",
"e  c #A34D3E",
"r  c #A2543D",
"t  c #A4593F",
"y  c #8E4F40",
"u  c #954D42",
"i  c #9A4F41",
"p  c #965244",
"a  c #9C5443",
"s  c #9E5846",
"d  c #96534A",
"f  c #9C554A",
"g  c #9E5A4B",
"h  c #9E5C51",
"j  c #A25643",
"k  c #AA5645",
"l  c #A55944",
"z  c #AA5C45",
"x  c #A3574A",
"c  c #A45B4B",
"v  c #AA5D4B",
"b  c #B45F4D",
"n  c #A45E52",
"m  c #AA5E51",
"M  c #9F604F",
"N  c #A96047",
"B  c #A5624E",
"V  c #AD614D",
"C  c #B16244",
"Z  c #B2644D",
"A  c #B8664C",
"S  c #BA694C",
"D  c #A56253",
"F  c #AC6453",
"G  c #AC6956",
"H  c #A5645A",
"J  c #AC6659",
"K  c #A76859",
"L  c #AD6A5A",
"P  c #B26653",
"I  c #B86553",
"U  c #B56A54",
"Y  c #BA6C55",
"T  c #B16659",
"R  c #B46C5B",
"E  c #BA6E5A",
"W  c #BB7156",
"Q  c #B5715D",
"!  c #BC725C",
"~  c #AC6B63",
"^  c #B56E61",
"/  c #B96E62",
"(  c #B57263",
")  c #BC7363",
"_  c #B77867",
"`  c #BF7865",
"'  c #B57168",
"]  c #BC7669",
"[  c #BE796A",
"{  c #C16F57",
"}  c #C16F5A",
"|  c #C27257",
" . c #C2745D",
".. c #C9775F",
"X. c #C2785D",
"o. c #C27562",
"O. c #C97663",
"+. c #C47A64",
"@. c #CA7C65",
"#. c #C1776B",
"$. c #C37B6A",
"%. c #C97D69",
"&. c #C7806E",
"*. c #CB826E",
"=. c #D1856E",
"-. c #CA8170",
/* pixels */
"j U F P v ! R P P E %.T R R o.E F F ) R ) R ) Q G Q ) ) Q G R ` c c N ) G c a F a = - g F = - < g f ",
"c P 8 4 4 c l l j c b 4 q l v 5 s s c a a 5 a s a l c c a 0 s V c a a R K N s F R c l R ) s D R J H ",
"o.o.R o.E } R o.+.o./ v E ! ) T %.) ! U Q T Q U ) R R U R ! R R ) ) R ` R ) R ) U T L F T l T F J K ",
"$ 4 5 v x 8 $ j j 4 8 6 l 4 8 8 l 7 7 7 l a l 7 l 0 3 7 q q 7 1 7 c c a 5 c l a p F F q g j V 7 a p ",
"P ) R E T o.E o.T P ! R E P E E U G ! R o.! ) ! E U ! ! ! ! E ! c E R ! F ) ! ! F U R I ! R +.T R T ",
"5 v 4 # $ v a $ + 7 j < < 3 7 < - 5 q 3 3 @ 5 q * 5 q r 7 - 5 j 5 5 3 l 8 7 3 l a 3 - 8 l - 8 j c c ",
"R o.R R R %.R P R E #.T ) R ) U  .! +.Y Y U !  .! E ! ! W Y W ! E I v E I V v P ! Y R E o.z R T E R ",
"< $ # a 4 # # v x $ - 4 x 3 3 8 l 6 > - l r q > Z q - - q r 7 @ 8 r 3 3 ; j 8 - @ l Z 8 8 j z < 7 7 ",
"F R F J c R T R G T F R T F P F U U ! N P V R U U V N P U F V P P U F U T o.U P R U o.E +.R o.o.-.&.",
"i l i 7 3 F c 5 7 c a 7 7 s c 8 5 j V 6 q 9 l q < q j l 5 - 8 N 8 8 5 l 8 8 7 c 8 3 7 8 j 5 8 7 a a ",
"F R F T m ) T v m R T V F R ` T V F ! F G c F V G F F U G F U R R R F ) T R U ) ! R ) F R R / F ) ( ",
"i i a F a i p F c c s n m x n n D 7 7 j F 0 7 0 V q 5 0 l l a 7 a c s a p c a 5 i B c 2 7 c c 2 2 2 ",
"c c c R c f g ^ m F c T L c F F #.G U L ` L T F o.) E Q ( R R R E [ ` ] ^ ` ^ L ^ $.[ ( R $.$.( [ _ ",
"F J n F c T F F n F c f x F R F s D G p g n L c K K J K D B D J p g n J f p a D c g g J n h f J g g ",
"n T F F c R F c F T B c g c J c c T ( B D L ) K D D n D K J G D ~ ~ L ` L ^ H ] J H D ) J J h J L K ",
"m F J ) T T J / ) ^ T ) R v F J ( K J K ) L J L J J J L L L L ^ ^ ^ n D H ] ^ D J ^ R ~ n ( D f D M ",
"i i 7 v j x a j m l x l T k l c T n n i x g m d J n f x n n m f m J c h c J c g n J T g p F T p f f ",
"R / T / T / T R P E %.T I T / U / R / ^ ( ^ #.^ ^ / ) ) ' / ] #.J J F ) T F n $.R F J ) T F F n ^ R ",
"4 m x 8 $ b l 5 3 j V 6 6 5 r 5 $ 7 n a 0 < M N 3 i s a u 7 i x 8 a 7 F f 7 2 T c 7 i F x 7 2 2 D h ",
"F E E Y F o.W U E b I Y +.A P S V F o.E W G W Q E R R E ! ! E E R #.R R ^ %./ / ^ R R T T R / F J G ",
"5 - * j 7 ; * q q + @ > t ; ; > z > > > N q 9 - N q 9 q q l 9 5 8 v 8 7 8 v 8 3 i j j 3 < j k 7 a i ",
"Y  .W ! A ! U S Y S W Y X.S W | X.U ! W ! W X.W W W ! W ! W W W ! %.) %.o.+.R o.R P T U T E R P o.o.",
"= z q - + t q + ; 6 t > 5 > w 5 * * t > > + > 9 * * 5 > > > > 5 3 3 $ 8 4 3 @ 8 r 5 4 8 6 8 6 3 0 7 ",
"U Y F ! P ! U I U S Y V A Z Y P Y N U W W U W U W W W Q W W W W Y I P E  .o.T  .E Y P P Z Y U v ! Q ",
"q 7 4 m x j 4 l k 3 4 8 v 4 4 3 l 6 6 4 z j r 5 0 t 8 8 6 z 8 ; 5 l 6 6 5 z j > 5 6 r @ ; 8 z 8 5 4 ",
"v m m m x T n v R m T F R v T b R Z P v Y Z T Z U U T Y Z U F Z v Y z I z I Y U Z I  .U I C E P E E ",
"n / T m i T P x x b R v F k T b v z m j l x Z P l l l Z l k j v r l 8 v r j v Z z j I V v r l l c c ",
"x m m x i m m x x v P k b j F v x j v a v l T R T T F R m T F Y v I z I V Z I U I j v v Z v I b F F ",
"R R T ) I I I #.R v I Z E P Z V R P P v R P E T P P c P v R P v l R c I b T I c V l F l l l T v v c ",
"8 5 - q 8 i 4 j z j j j Z r j r z l l 8 l r e 6 z v r l l P k r j Z j v l T V a j j I l x 4 c l i a ",
"U E P W U  .R Y W Y  .Y ..Y | W | E  .I Y Z I Y I Y A ! Y Y I ! F / T o.R E / E E T / E E v T m / / ",
"5 j 5 - @ l q @ * 9 t > > , r w 5 6 z 8 8 > j z ; 6 r z 6 5 6 z 4 8 3 l 8 8 8 l P < 4 a c 5 8 3 c n ",
"U ! ! *.W +.! X.W W W C | S S C | P Y A  .Y ! E  .| ! @...+.Y Y E E Z U A @. .! ! U ! z ! U ..U Y E ",
"- < * 9 5 3 - 9 N o * 9 N o @ 9 C 5 $ ; z 8 6 @ z r $ > 8 z 6 @ > C l ; + l q * ; 5 z > 6 - z r - - ",
"Q R G Q R U T ` &.Q !  .@.W W X.+.Y ! E o.Y ! o.o.+.} +.! +. .X.o.$.+.O.o.+.! X.| U o.V +.W ! F Q ~ ",
"7 s g 0 2 p s 7 = q B < < 0 l 5 # 3 q 8 - $ 8 V # 3 q z 7 - 3 V q * # l N 7 - s F q 7 - l r 7 . M H ",
"K / ' J ~ / ^ J ^ ^ [ ' ' ^ ] ] ) ) ) ` ) ) ` +.R ! ! $.` #.) $.) ` ` ! _ ) ) Q ` &.&.` #.` &.&._ _ ",
"f u f f n d h h H d d y H d d d g s q s a c a a f v a 7 7 G n 0 7 B L 0 7 0 g s 2 0 M s 0 2 g G p s ",
"n p f g J d n n ' ~ ~ H ~ ~ ~ H n K J R F J K R K R L K c R L L J K Q K K M G L Q L L L J L L Q F V ",
"R J R n J D L J H n ~ K ~ H ~ ' n L D R n L F K F f a ^ L F n L Q M h p D g g p L L D K D D g M D F ",
"* M G 1 1 M D p 2 d M M p 0 M K p g a F s D B L F g F L R a g n ( s K M K K L g L g g g M K p g h h ",
"W B ! U +.Q Q Q [ ( G Q _ Q K K R R D Q R ` R T R ) #.G ( ) ` F L D $.( L L ( Q D K Q Q D K D ( ~ ~ ",
"M   * X t * *   N M > 0 0 B 0 = < a 7 < # a j 7 < a c - 2 7 s < = 2 L s 2 < a g 0 0 p B 7 2 2 G 7 u ",
"W N X.B W B U W U Q G &.G X.Q Q E o.%.o.R E  .o.%. .o.E O.E | E Q Q &.! Q &.[ Q Q Q R Q G ` R Q / } ",
"* 0 U > 5 @ l U * * $ C > > * C z > 4 C Z ; @ ; Z 5 ; 8 A r w 5 U q > < l ! l - a U l > 5 Q F * 5 ; ",
"! Z W W ! E Y ! V ..} } C W W W { { | Y } S Y { | Y O.| ..{ O.@.&.X.! W ! %.E +.! X.R P R Y ! z W Y ",
"U 7 # 5 l P 4 & 5 Z z : ; A S , & z A & % w A w : w A r w : z A - w l q ; - @ Z l > ; r V + 5 8 F g ",
"} E V V k  .T E } E Y Y E .... .{ { ..S ..Y { A ..S Y A { { | ..W ! U X.X. .Z %. .Y ! Y =.Z @.U $.) ",
"b k E E e k l ) a r e b v 8 8 r t w > ; z 8 5 ; z l ; , 6 t , : 6 r w 4 5 r 6 > * q N l a 7 F c a q ",
"% o 8 a O 4 8 R U T I O.#.G A Y @.| E Y %.+.! U *.%.U W | @.{ S Y { E Y W @.+.Y Z  .$.) T F $.` E Y "
};
