/* XPM */
static char *caf_remove1680656757[] = {
/* columns rows colors chars-per-pixel */
"50 50 168 2 ",
"   c None",
".  c #5B4C19",
"X  c #675413",
"o  c #62542B",
"O  c #3F4556",
"+  c #6B625C",
"@  c #6A6156",
"#  c #776D67",
"$  c #77716D",
"%  c #7B7169",
"&  c #6C707A",
"*  c #7D7572",
"=  c #7F7975",
"-  c #957600",
";  c #997600",
":  c #917826",
">  c #9A7E22",
",  c #90772F",
"<  c #877232",
"1  c #917830",
"2  c #82756C",
"3  c #847870",
"4  c #8C7F77",
"5  c #907F73",
"6  c #9C801E",
"7  c #A68100",
"8  c #B18C00",
"9  c #BC9400",
"0  c #BF9904",
"q  c #B7930C",
"w  c #BD980D",
"e  c #BC970C",
"r  c #A7891F",
"t  c #A6871A",
"y  c #B08E1D",
"u  c #B49115",
"i  c #B99515",
"p  c #B5931A",
"a  c #BA961C",
"s  c #BD9814",
"d  c #A28422",
"f  c #BA9622",
"g  c #B8952B",
"h  c #A88A35",
"j  c #BB993C",
"k  c #BB9835",
"l  c #C09600",
"z  c #C49D00",
"x  c #CA9E00",
"c  c #C39D0A",
"v  c #C49D14",
"b  c #C09B19",
"n  c #C7A001",
"m  c #CCA400",
"M  c #CAA30A",
"N  c #D0A700",
"B  c #D4AA01",
"V  c #D9AE00",
"C  c #D9AE0D",
"Z  c #D1A80D",
"A  c #DDB100",
"S  c #C7A013",
"D  c #CCA51A",
"F  c #D0A712",
"G  c #D7AD15",
"H  c #D9AE11",
"J  c #D3AA1C",
"K  c #DCB117",
"L  c #E3B601",
"P  c #E7B900",
"I  c #E4B709",
"U  c #F7C600",
"Y  c #FEC500",
"T  c #FECA00",
"R  c #F8C711",
"E  c #FFCF28",
"W  c #AC904F",
"Q  c #B4974E",
"!  c #B7994F",
"~  c #BF9E48",
"^  c #BB9941",
"/  c #B59854",
"(  c #B59A5B",
")  c #8F8177",
"_  c #86807C",
"`  c #8D827B",
"'  c #908277",
"]  c #93857C",
"[  c #998A7F",
"{  c #A48E63",
"}  c #B49E74",
"|  c #BDA36D",
" . c #E2BC5C",
".. c #C1AB7F",
"X. c #DFBF76",
"o. c #DEBE7A",
"O. c #ECC148",
"+. c #E2C179",
"@. c #8C8682",
"#. c #978C84",
"$. c #9C8D83",
"%. c #948D8A",
"&. c #9E9086",
"*. c #9C948F",
"=. c #95908B",
"-. c #979390",
";. c #9B9592",
":. c #9F9A96",
">. c #A29187",
",. c #A4958A",
"<. c #A8978C",
"1. c #A7988E",
"2. c #A8998E",
"3. c #A39A94",
"4. c #AD9E93",
"5. c #A49E99",
"6. c #AFA096",
"7. c #A6A19D",
"8. c #A9A39F",
"9. c #B0A197",
"0. c #B3A499",
"q. c #B3AA9F",
"w. c #AEA9A5",
"e. c #AAA4A1",
"r. c #B3ABA4",
"t. c #B3AEAA",
"y. c #B7B1AD",
"u. c #BAB5B2",
"i. c #BEB8B5",
"p. c #B3B1B3",
"a. c #C5B59C",
"s. c #C7B8A1",
"d. c #C4BBAE",
"f. c #C3BCB7",
"g. c #C2BDBA",
"h. c #DFC79B",
"j. c #E4C68A",
"k. c #CDC3B7",
"l. c #C6C1BD",
"z. c #DFCDB1",
"x. c #D1C7B9",
"c. c #DBCFBE",
"v. c #D2C8BA",
"b. c #DFD0B8",
"n. c #E6D0AA",
"m. c #CBC6C3",
"M. c #CEC9C6",
"N. c #CFCAC8",
"B. c #C4C4C9",
"V. c #D3CCC4",
"C. c #D1CCC9",
"Z. c #DCD1C4",
"A. c #D6D1CE",
"S. c #DBD4CD",
"D. c #D1CED0",
"F. c #D7D3D0",
"G. c #DAD5D2",
"H. c #DEDBDB",
"J. c #E0DAD6",
"K. c #E2DDDA",
"L. c #E6E1DE",
"P. c #D9DAE0",
"I. c #E1DFE0",
"U. c #E6E2E1",
"Y. c #EAE4E2",
"T. c #EEE8E5",
"R. c #F0EAE7",
"E. c #F0EBE9",
/* pixels */
"                                                                                                    ",
"                                        d u w c B B B B M e u r                                     ",
"                                    > q V A A A V n n A V V A V 0 6                                 ",
"                                  y A z B N N m n m n m m N B N z L u                               ",
"                                : L n m m m 0 n B V B V z n N m m n L 6                             ",
"                              & h z m V B V B z B N B m n B V B V m z g O                           ",
"                            7.Y.{ m D B B V B 0 n m m z z B B B V v B W D.                          ",
"                          ;.R.Y.i.8 M M m n z V B V V B B z m m z F 9 t.R.V.                        ",
"                        * Y.Y.J.Y.g.- C A B n B B B B B m n B A K 7 r.Y.J.T.e.                      ",
"                        u.Y.K.K.L.8.    a M B N A A A V B V M s     *.L.K.U.K.                      ",
"                      * L.L.K.Y.y.'             p a f a             2 t.L.K.T.5.                    ",
"                      5.T.K.K.F.] 9.                                <.' A.L.Y.g.                    ",
"                      t.Y.K.Y.u.[ 0.+                               6.$.y.Y.L.G.                    ",
"                      i.Y.K.L.5.>.0.%                             + 0.,.3.L.L.L.                    ",
"                      g.Y.K.L.:.<.0.2                             % 0.<.*.K.K.Y.=                   ",
"                      u.Y.J.U.5.>.0.]                             ` 0.,.;.L.L.L.$                   ",
"                      t.Y.J.U.t.$.0.4.                            <.0.>.7.L.L.J.                    ",
"                      5.T.K.Y.M.) 9.0.2                         2 0.9.] i.Y.U.C.                    ",
"                      _ Y.L.K.K.#.<.6.3.                        3.9.4.` F.K.Y.y.                    ",
"                        F.Y.J.Y.g.' 9.9.`                     ] 4.0.$.e.Y.K.T.3.                    ",
"                        t.T.K.K.L.3.>.6.0.4                 ` 0.4.4.` F.L.L.L.                      ",
"                        @.T.K.K.L.G.` 4.4.0.#.%         2 &.9.4.0.5 g.Y.J.Y.i.                      ",
"                          M.U.K.K.U.C.4 4.6.6.0.>.#.$.<.0.4.4.0.] r.U.K.K.T.%.                      ",
"                          ;.T.K.K.J.Y.N.] 1.9.4.6.0.0.9.4.4.9.] w.L.K.K.Y.C.                        ",
"                            A.Y.K.K.K.U.S.*.$.9.6.4.4.4.9.<.] i.U.K.K.K.T.;.                        ",
"                            ;.T.K.K.K.K.L.K.u.#.>.3.4.,.$.4.C.U.K.K.K.Y.C.                          ",
"                              m.Y.K.K.K.K.K.U.G.u.4.3.t.M.U.U.J.K.K.K.T.%.                          ",
"                              _ Y.L.K.L.K.K.K.L.L.K.J.L.L.K.K.K.K.K.Y.u.                            ",
"                                w.T.K.K.K.K.K.K.K.L.K.K.K.K.K.K.K.L.K.                              ",
"                                  C.Y.K.K.K.K.K.K.K.K.K.K.K.K.K.K.T.;.                              ",
"                                  3 L.L.K.K.K.K.K.K.K.L.K.K.L.K.T.y.                                ",
"                                    ;.R.L.K.L.K.K.K.K.K.K.K.K.Y.C.                                  ",
"                                      w.T.K.K.K.K.K.L.K.K.K.L.K.#                                   ",
"                                        u.T.K.K.K.K.K.K.K.U.Y.@.                                    ",
"                                          l.T.L.K.K.K.K.Y.R.=.                                      ",
"                                            g.K.K.I.K.K.G.-.                                        ",
"                                            1 / ( ( / Q h X                                         ",
"                                          l.J.C.v.x.x.V.S.K.u.                                      ",
"                                      ;.Y.Y.L.Y.U.U.Y.U.L.Y.T.A.                                    ",
"                                    :.R.L.K.H.Z.z.S.G.H.K.K.K.Y.G.                                  ",
"                                  %.T.L.K.H.o.Y T R U +.S.J.K.J.T.f.                                ",
"                                @ J.Y.K.K.K.z.n.h.T E T X.G.L.K.K.Y.%.                              ",
"                              7 r.Y.J.K.K.K.U.U.P. .T O.d.G.L.K.K.Y.i.;                             ",
"                            J x p.T.K.K.K.K.H.J.K.c.j.S.G.J.K.J.K.T.B.9 H                           ",
"                          o w V / f.G.U.U.U.L.U.L.U.U.U.U.U.U.U.H.N.} B w .                         ",
"                            9 q x z ~ ..s.k.V.A.G.G.G.F.A.V.k.a.| 9 z q 0 1                         ",
"                            Z V c a z l 9 9 9 a k j ^ j f 9 9 9 9 c v B P <                         ",
"                              w L L C J D D M n x n z z n M D J G L L M d                           ",
"                                  i c C A P L P I I I I L P L B c s r                               ",
"                                          y p i a a i u p y                                         "
};
