/* XPM */
static char *FUCit6AWYAE8ORz1680656872[] = {
/* columns rows colors chars-per-pixel */
"50 50 256 2 ",
"   c #020200",
".  c #0C0200",
"X  c #050C00",
"o  c #140100",
"O  c #190501",
"+  c #191601",
"@  c #0B1606",
"#  c #240700",
"$  c #281705",
"%  c #32160C",
"&  c #1D300E",
"*  c #292207",
"=  c #302E15",
"-  c #30322B",
";  c #4D1B06",
":  c #512E10",
">  c #493828",
",  c #453933",
"<  c #55362A",
"1  c #6F2418",
"2  c #3B4B2B",
"3  c #574B14",
"4  c #6D4D17",
"5  c #5C6B1A",
"6  c #736F19",
"7  c #57482B",
"8  c #505034",
"9  c #72553A",
"0  c #6C5130",
"q  c #54632C",
"w  c #716E31",
"e  c #565547",
"r  c #52504D",
"t  c #655945",
"y  c #765747",
"u  c #6C544F",
"i  c #4D6D59",
"p  c #7A685A",
"a  c #70704C",
"s  c #717169",
"d  c #606167",
"f  c #4A4E4D",
"g  c #8E1414",
"h  c #B01518",
"j  c #872719",
"k  c #AA2919",
"l  c #953329",
"z  c #B02E2B",
"x  c #A91B23",
"c  c #C91715",
"v  c #CF3030",
"b  c #DF2D29",
"n  c #877616",
"m  c #884C36",
"M  c #9A5636",
"N  c #974C2F",
"B  c #A25639",
"V  c #A85939",
"C  c #B45B38",
"Z  c #B75433",
"A  c #8A6D30",
"S  c #AA623D",
"D  c #B7633C",
"F  c #B9752A",
"G  c #C75D32",
"H  c #D15233",
"J  c #D8642B",
"K  c #CB6538",
"L  c #DB6A35",
"P  c #DC653A",
"I  c #D56B3C",
"U  c #DC6C3C",
"Y  c #D76535",
"T  c #D9723B",
"R  c #CD733F",
"E  c #E26C3B",
"W  c #E56834",
"Q  c #E3723D",
"!  c #E9743C",
"~  c #F06F37",
"^  c #E35D28",
"/  c #855B45",
"(  c #995843",
")  c #8E4447",
"_  c #AE5C42",
"`  c #A75446",
"'  c #B45E45",
"]  c #B0594E",
"[  c #84694A",
"{  c #887757",
"}  c #946E51",
"|  c #A86647",
" . c #B46445",
".. c #BB6344",
"X. c #B3654A",
"o. c #BC6C4D",
"O. c #B76848",
"+. c #AC6854",
"@. c #BD6C54",
"#. c #B66554",
"$. c #A87458",
"%. c #BB7658",
"&. c #B6714D",
"*. c #8F766B",
"=. c #A87A67",
"-. c #B77865",
";. c #A87D74",
":. c #D0524A",
">. c #F64E50",
",. c #C46C4B",
"<. c #C86947",
"1. c #D76B45",
"2. c #C8734B",
"3. c #DD7244",
"4. c #D8764A",
"5. c #C96C52",
"6. c #D36C54",
"7. c #C37454",
"8. c #CC7353",
"9. c #C97959",
"0. c #DA7B5B",
"q. c #D57757",
"w. c #E36C42",
"e. c #E66C47",
"r. c #E37343",
"t. c #EA7344",
"y. c #E4744C",
"u. c #EC734B",
"i. c #E47B4D",
"p. c #EC7C4C",
"a. c #E77945",
"s. c #F27C4C",
"d. c #F47749",
"f. c #E37A53",
"g. c #EB7C54",
"h. c #E67857",
"j. c #F27C55",
"k. c #E5665D",
"l. c #D97B61",
"z. c #CB7C67",
"x. c #E37D63",
"c. c #FF7173",
"v. c #66871B",
"b. c #6B8825",
"n. c #728B2B",
"m. c #769727",
"M. c #799433",
"N. c #6F8C30",
"B. c #7DA329",
"V. c #758B52",
"C. c #7E8366",
"Z. c #879538",
"A. c #82A72C",
"S. c #86B32F",
"D. c #84A833",
"F. c #89B833",
"G. c #BF8315",
"H. c #DFA217",
"J. c #839A45",
"K. c #8E8956",
"L. c #AC8856",
"P. c #91A649",
"I. c #988568",
"U. c #908D72",
"Y. c #B88668",
"T. c #B3956D",
"R. c #A88978",
"E. c #A69978",
"W. c #B7997A",
"Q. c #B18B72",
"!. c #9BB067",
"~. c #B0B476",
"^. c #B6AC5D",
"/. c #C6815A",
"(. c #DA825D",
"). c #EB835C",
"_. c #E78459",
"`. c #F98558",
"'. c #EB824B",
"]. c #CEB150",
"[. c #C98668",
"{. c #D98765",
"}. c #C68B74",
"|. c #DA8974",
" X c #C79579",
".X c #D79879",
"XX c #DC966A",
"oX c #E38562",
"OX c #E48B6A",
"+X c #E98A66",
"@X c #F38B66",
"#X c #ED926C",
"$X c #F5946B",
"%X c #E88D73",
"&X c #E89678",
"*X c #F79A78",
"=X c #C9AE71",
"-X c #FDA17C",
";X c #EDA07D",
":X c #E3BF51",
">X c #B1C574",
",X c #F1CA4F",
"<X c #E2CF77",
"1X c #867482",
"2X c #7B9896",
"3X c #929390",
"4X c #AA968A",
"5X c #AB9A97",
"6X c #B59688",
"7X c #98AA93",
"8X c #B3AB91",
"9X c #B7B3A7",
"0X c #B5ADAE",
"qX c #9EA0A8",
"wX c #C49985",
"eX c #D99A85",
"rX c #C69995",
"tX c #E99D83",
"yX c #F59D84",
"uX c #ED9D96",
"iX c #C5A887",
"pX c #D9A689",
"aX c #C9A895",
"sX c #D8A997",
"dX c #CFB792",
"fX c #EAA588",
"gX c #FBA384",
"hX c #FCAA8C",
"jX c #F9A688",
"kX c #F7AD94",
"lX c #E5B597",
"zX c #FBB394",
"xX c #F5B49A",
"cX c #EEAC91",
"vX c #D0B7A9",
"bX c #E5BBA9",
"nX c #F9BBA2",
"mX c #EFB8B7",
"MX c #B6CDAD",
"NX c #D5CA91",
"BX c #EBD099",
"VX c #D7C9BD",
"CX c #D6CEB1",
"ZX c #F9C5A9",
"AX c #FFD2B5",
"SX c #EACDAE",
"DX c #F5EAB0",
"FX c #B8BAC2",
"GX c #B8C8C8",
"HX c #D3D1CE",
"JX c #F0D6CA",
"KX c #FCE8D9",
"LX c #EDF2DC",
"PX c #FAFAFA",
"IX c #F3EDEA",
"UX c #DDEECE",
/* pixels */
"| &.%.,.K <.G y.4.K g.i.1.g.e.e.e.u.j.j.1.u.j.1.1.0.q.<.8.l.] #.] X.#.%.V %.{.9.oX0.l.oX6.+X&XOXOX%X",
"M &.,.8.q.f.G 1.1.G f.g.y.u.e.u.u.e.j.j.e.e.x.e.h.h.6.<.q.5.B 5.@.` X.@. .%./.OXq.q.l.x.<.8.{._.#X%X",
"M &.&.8.q._.6.1.y.3.y.3.1.u.w.u.d.e.u.e.e.Y u.u.y.1.8.6.l.5.B ,.#.` @.X. .7.2.9.l.l.x.x.8.q.OXOX0.{.",
"B 7.o.2.<.4.y.1.K 3.3.U j.`.e.P e.e.e.w.w.e.h.h.1.:.<.<.5...C ` ` ] @.N M &.9.9.l.q.l.l.(.oXOX{.x.h.",
"M 7.,.2.<.4.3.I 3.i.I K t.j.d.E W e.E w.w.u.e.j.j.j.6.6.5.5.7.X.l _ X.B O.&.(./.5.6.l.oXl.0.oX_._._.",
"D o...2.1.4.4.I I a.U r.t.P E P u.e.w.u.w.e.P e.h.1.<.1.5.' ..B B ` X.7./.O.o.(.7.5.q.6.8.q.#X#X$X@X",
"2.O.D <.<.4.1.3.r.p.Y U w.Y d.p.j.s.s.u.e.u.e.k.w.:.<.6.5...o.V 9.#. .o.O.O.o.(.8.8.l.6.l.0.+X)._._.",
"R D <.1.K 4.I r.'.`.Q s.s.! s.E t.w.s.Y E u.d.e.e.1.1.q.<.o.9.' _ _ o.&. .(.o.o.7.OXkXhXyXoX_.q._._.",
"4.1.0.R 1.K 4.'.U a.w.t.L ! Q ! I Y r.t.e.e.j.j.y.h.4.6.5.C  .C 7.X.' _  .q.O.9.|.hXjXjXjX*XoXoX).@X",
"4.0.).i.f.3.a.3.r.L L t.s.E J L U U t.P P H e.u.j.x.h.<.<.' 7.7.#.7.@.V B 7.o.{.7.|.*XyXjX*X+XoX).).",
"4.y.g.i.4.i.i.r.s.p.`.! ! L Q Q L U p.t.y.y.j.h.k.h.6.Z ' C ' B N M o.5.2.9.O.z.{.fXjXhXhXgX#X_.).).",
"`.`.a.3.Y 3.U G U u.s.W L T `.`.Q U w.E 1.y.g.y.h.h.8.8.8.8.,.C X.B N B V O.O.{.z..XtXtXyXgX&X_.g.).",
"$X`.e.w.G U I Y P P P t.r.r.3.'.'.t.w.U U h.@X*X@X%X8.q.<...C ..B ` N N  .o.@.9.[.&XfXfXjXhX*X+X+Xg.",
"`.d.W w.Y r.3.w.w.t.e.u.w.r.I J U P U 3.1.h.@X-XyX*X0.q...' C ..B B B M  .X.#.%.[.fXkXfXjXhX#Xq.).@X",
"j.d.e.t.U U 3.w.P u.t.P L t.3.G w.a.u.`.`.$X*X@X$XOXq.5.5...,.' | | V B  .N M _ [.cXnXkXzXzXyX+Xh.).",
"~ ~ W d.r.3.a.p.`.u.u.t.`._.4.K I U I _.@XgX*XOX*X*X%X8.8.C 5.5.V  .V N M M X.+.%.fXcXtXtXgXOX0.g.).",
"~ ^ ~ t.E E r.r.`.s.s.p.'.4.'.(.4.'.4.#X*X-X+X#X#X*XhX#X,.C S 2.S D V S S V X.@.z.hXzXjX;X&X#X_.1.i.",
"~ W W J E Q E Q ! ! P r.r.I (.(.4.4.4._.*XgX*X-XOX$X%Xl.,.D Z V K D S S &.S X.M |.zXxXkXkXjX*X_.i.'.",
"d.d.! E p.p.L L t.d.W r.r.K '.4.<.<.,.0.*XhX*X%XyXx.5.@. .o.D S O.S S M | / +.` z.eXeXxXxXcXyX*Xg.p.",
"d.~ t.Q p.'.L L d.d.W E Q I I Z G 1.0.+X*X*X&X#XyXl.] 6.9.7.D O.O.D M M M M +.+.] +.}.cXcXtXyXgX).i.",
"d.w.r.E T '.! '.~ J W J T r.K Z G 1.f.+X$X*X*X;XjX%X..(.,.' C D Z V N M M M | X.+.#.|.xXcX&XyX*X$X`.",
"`.t.a.r.L T ! Q W J W J J T K K y.Y I 4.).#X-X*XhX-X(.8.D ,.,.8.V C F M V N  .X.@.X..XzXkXjXyX*X$X_.",
"j.! Q T T L J J W J W J G G K K Y W r.I R 2.$X;X+X(.q.<.D ,.D C K R /.D | M  . .V ' &XzX;XjXgX#X#X_.",
"`.! L L ! T L '.! ! J J K K ,.R G Y p.1.I 4.$X#X-X#XOX0.(._.2.O.V C V S S &.X.` B X.fXzX&X&XyX@X$X`.",
"~ W Q ! L T '.J Q T J K K D Z D g.g.$X-X*X-X-XOXjXjXyX%XjXzXyXhXhXzX.X.X| 0 +.+.( ` pXZXZXtXuXhX$X'.",
"~ ~ ! L T T '.'.T R F 4.(.{.fXXX@X`._.#X-X#X{.oXXX#X%X|.jXhX|.tXxXxXZXAXZXpX-.m m +.Y.eXeXuXtXyX_.a.",
"~ J ! ! 4.G./.F 2.4.D OXZXZXzX;Xq.8.2.#X-X#X{.&X{.{.&X[.9.&XtXnXxXnXpX XZXAXAXxX}.m ( }.}.cXzXyX+X).",
"W ! T T 4.(./.{.;X2.S S /.ZXAXfXOX{.;X;X(.%.[.XX[.&XfX&.-..XeXxXxXZXxXlXlXBXbXfX+.| +.}.xXjX&XyX-X+X",
"g.3.<.7.| XX X| %.( m +.| Y.pXcXzXXXL.&./.&.L.S M %..X X$.$.Y.=XpX.X.XAXpXY.Y.` +.| | M %.&XhXgX{.4.",
"-X<.9.z.; m W.} }.=.: $.Y.Y.=.}.Y.fXY.L..X+..XY.; Y..XY.Y.T.} 0 =.Y.Y.iXpXY.T.$.[.m | L.` {.jX{.<.8.",
"l.q.7.+.-.1X6X;.VXbXpXAXeX X+./ } sXY. XlXwXwX( cXZXuXsXaXQ.aXSXbXsXbXI.I.} +. X X-.}.T.}.-.@.5.Z G ",
"<.|.-.m tXxX6X9 sXwXaXJXbXW.; 0 Y.sXiXwXaXmX;.: bXKXsXaXSXCXJXKXwXwX8XvXp o *.[ / T.bX}.nXxXz.j x.:.",
"k 5.1 =.8.6.] #.tXpXmXmXvX} < =.[..XNXiX: Q.6X1Xz.JXJXbXSXSX8XvXiXdXvXvXu ;.u > $ } eX-.eXkX#.1 :.v ",
":.yX+.l.c.b z z :.%XmXJXHX*.$.9.V z. XW.y aXrXsXQ.sXKXJXW.aXR.vXdXdXVX4Xo < 5Xp w dX} $.;.%.#.:.k H ",
"pXN l.:.>.>.h b z z uXrX=.|.:.z ] ` ( R.*.u } ;.;.y bXKXvX0XPXPX8XI.VX4Xu u *.p { K.4X0XR.} ; | l z ",
"R.# ` v h b b b h x ;.% ;.hXc c v ` +.6Xy # ) *.R.{ { JXIXPXPXHX4XR.HX8Xp p o * > 9 4XvXU.q * [ | Z ",
"HXrX:.g x x z z 1 t V.i qXmXh c v :.l ` 7 > A [ 8XdXK.NXHXPXIXHX*., 1X*.# < < < $ 7 y *.8 X X K.$.4 ",
"KXmXZX8.g l l m # i i f MXHX:.>.c.k.) : 0 9 7 CXPXVXK.E.HXIXPX0Xu 5XHX8XO / K.; # y } 7 + -   0 T.4 ",
"SX: | ;XL.% # ; # t 3X7XFXHXz >.:.x 1 # o   0XPXLXPX3X9XIXIXPXHXs 8XJX9X% ; I.4 $ 4 0 A = $ O y L.M ",
"=X4 A : K.E.y = o 7 3X0XHX5Xx c.c.g ) o u HXPXPX0XHXGX3X0XFXFX3X  - e p 4Xy } K.o $.].L.9 < > W.'.F ",
"=Xn ].3 # d 3X, o 9 w . r u v c h z ) ) VXIXPXHXd u HXFX, - d i   -   qXHX5Xp { . *.BXdXR.o *.sXF G.",
"K.J.^.7 o - $     8 { 7 @ r x v :.) ) *.d r 5X0X. , qX5XqXi 2Xs . ,   U.VX4Xr = - $ W.SXR.o dXZXG.H.",
"4 w 8 $ - - = e + = { [ % r 1 ) ; , - @   X , p r u 1Xd s r 2Xf > R.8X*.I.T.a t - > *.dXT.O L.].H.H.",
"SXR.  , - - 2 8 O K.K.a r d ) % X - & @ - 8 p ;.6Xp d qXs r qX- 7 } NXT.~.=X* 8 O , iXBXSX4 n :X,XH.",
"CX& q f + + > . n P.w   + t U.= , % r   O p aXy 6XvXr d i - 2X- a T.~.T.BX=X+ = = 6XSXNXBX3 $ ].,X,X",
"V.7XMX!.I.> 8 3 =X=X3 + - s t   e &   d VXIXbX% KXVX  - i - i 2XI.W.dXDXNXA * = * W.NXAXDXNX<X<X,X,X",
"& V.9XU.E.t U.U.* } 4Xa 2 s s { 8 C.MXUXCX9X8 - UX7XX & - 2 & a q 8XLXCX6 5 a C.q w w Z.NXNX>X^.n n ",
"v.5 2 3 K.w q V.V.0 K.V.q V.NXE.5 V.MXV.& V.w a UX7X2 q q a a a N.7X!.N.6 n.J.U.!.P.P.Z.5 5 5 5 w n ",
"B.B.F.B.V.B.m.b.m.m.b.m.b.m.M.N.b.N.J.J.M.b.b.M.>X!.P.N.b.N.M.M.b.b.v.b.m.n.b.v.v.D.D.>X>X~.!.!.M.N.",
"F.F.F.B.F.F.F.F.F.F.F.B.B.B.F.B.B.m.m.D.M.m.m.m.b.N.M.m.B.B.B.B.B.B.B.B.B.B.m.m.v.b.v.n.M.J.!.>X>X>X"
};
