/* XPM */
static char *wydad_remove1680656966[] = {
/* columns rows colors chars-per-pixel */
"50 50 57 1 ",
"  c None",
". c #DB262D",
"X c #DB282E",
"o c #DB2730",
"O c #DB2C33",
"+ c #DB3136",
"@ c #DB353B",
"# c #DC393E",
"$ c #E5272C",
"% c #EC262B",
"& c #E5292E",
"* c #EB292E",
"= c #F02327",
"- c #F3262B",
"; c #FC262B",
": c #F32A2E",
"> c #FD2A2E",
", c #E12730",
"< c #E42C32",
"1 c #EC2D32",
"2 c #F32C33",
"3 c #FC2D32",
"4 c #F62F38",
"5 c #F82F38",
"6 c #E43136",
"7 c #EC3235",
"8 c #E3353A",
"9 c #EC3539",
"0 c #E33A3D",
"q c #EC3A3C",
"w c #F33035",
"e c #FC3136",
"r c #F43139",
"t c #FD333A",
"y c #DB3740",
"u c #DC3C41",
"i c #E43D41",
"p c #EC3D41",
"a c #DC4244",
"s c #DD4449",
"d c #E34144",
"f c #E04549",
"g c #E94548",
"h c #EDAE1F",
"j c #F4B216",
"k c #FBB614",
"l c #FFBB16",
"z c #FEBC1B",
"x c #EDAE23",
"c c #EEAF29",
"v c #EDB02E",
"b c #F4B325",
"n c #EEAE36",
"m c #EEB133",
"M c #EEB339",
"N c #FFC51D",
"B c #FFCA1B",
/* pixels */
"                     M      M                     ",
"                    czv    vhxv                   ",
"                   vljNv   xklx                   ",
"                    bxb    vxxv                   ",
"                                                  ",
"                                                  ",
"                     q9wqq77q                     ",
"                qw:e3>>>>;>>>>>1wq                ",
"             qw>>>:w7w*==:g w;:-;>>w9             ",
"           9:>;%-7     >-*>ww7 1%%%->2q           ",
"         qqe=*97:  9e77>9  e>  7;;-%%-3qq         ",
"        9pq*>q >>9   >=%*9  3  :%997%%*qp9        ",
"       7 q-%1  717  9>2:>t9 9  eqq0*-*-;9 9q      ",
"     q9 q;&%%q     93q977   7  3q9;*1;71>q 9q     ",
"     9  3$%e3>9qqq2-:     92e  37937 9  1>  9q    ",
"    8  w%%1  &&g8i:$*&76<*38*  72:1  i  0%e  8    ",
"   8  0:&$6   2&66$*$2  7>8 67      <6   1-0  8   ",
"  80  <$%$$20  < 0%$$&0  e  8-<6006*%1   0-6  q0  ",
"  8   2&0>::t  i &3&.$:6 0d 8%2883%&$2    **   8  ",
" 0i  q30  8    8 &d8>2&3  g 8*   i31:7 8q 8>0   8 ",
" 8   0%<     8:6 d  00   6d O8 00 868  <+  38   @ ",
" 0   d%X271e3<<O a<    8O2  <X        +0+  4O   0#",
"#u   #*$X.XX%as1 <3ee121&ei 13eu #8+0@2a8  e8    0",
"#    #*+#&XX<sO@ +1#+$*@a8  +#  +22#  @3+ #3#    #",
"#     3# t<XO+$2#oXa@O#@#     @O1.@    @  O1     @",
"+     <+  #OX$O# +2Ou u #eO @X1++&@ O@  #<.O     +",
"#     #1@  <.+    @ #+<# +. t1e  2O    #eXO@     +",
"u      <2uu*O  92        <@ #o#  1s  +u <X1      #",
"@      u3 #2oy  ++@@@++O<X+    #oo@ o3@ O&#      #",
"u#      @# @+79  2%<,OOXXXX++#@uO<7 #2@ 2+      ##",
" @       @      @+#a+XXXXooo2#uu@Ou O1 #6       # ",
" #        @O@  @<uuOXXXOoo,<+      @@  @        @ ",
"  @     u@ @tt2,o13<oO.oo<O     @#u  uu #u     @  ",
"  @     @2   O<O@u@o+u2O4O  +4r28#u@@uu@@      @  ",
"   @    5     #O1@uu# +O+ u1oo.oo<O+a@@    @@ @   ",
"   u#  O.@+O1u   @+<5#   #3<,71++u  O@     4 u#   ",
"    ## @7#yu2y      ##a +oO@@y     @5     4 u#    ",
"     @#     5u @7@                 +ou  @ruu@     ",
"      u@   @o<8@        9,@        41275Osu#      ",
"       u#  @8u         +++<@       #yuy  y#       ",
"         @y           65  +2+          u@         ",
"          u#u   u    r+u@@yy2+    i  u#u          ",
"            u#u     +@      uo#    uu#            ",
"               u#uu          uuauu#               ",
"                  uayuuyi#yuuua                   ",
"                                                  ",
"                                                  ",
"                  vc    n    ncm                  ",
"                  cNm   NN   vBv                  ",
"                        vm                        "
};
